# xmcd
#
# Track frame offsets:
#  150
#  17880
#  32124
#  45872
#  54363
#  70263
#  80754
#  95506
#  111968
#  127592
#  141157
#  161015
#  174542
#
# Disc length: 2572 seconds
#
# Revision: 0
# Processed by: cddbd v1.4PL0 Copyright (c) Steve Scherf et al.
# Submitted via: AltoMP3_Maker 3.0
#
DISCID=a60a0a0d
DTITLE=Sly and The Family Stone - A Whole New Thing
DYEAR=1900
DGENRE=
TTITLE0=Underdog
TTITLE1=If This Room Could Talk
TTITLE2=Run, Run, Run
TTITLE3=Turn Me Loose
TTITLE4=Let Me Hear It From You
TTITLE5=Advice
TTITLE6=I Cannot Make It
TTITLE7=Trip To Your Heart
TTITLE8=I Hate To Love Her
TTITLE9=Bad Risk
TTITLE10=That Kind Of Person
TTITLE11=Dog
TTITLE12=What Would I Do
EXTD=
EXTT0=
EXTT1=
EXTT2=
EXTT3=
EXTT4=
EXTT5=
EXTT6=
EXTT7=
EXTT8=
EXTT9=
EXTT10=
EXTT11=
EXTT12=
PLAYORDER=
